<mxfile host="app.diagrams.net" modified="2024-02-15T14:26:09.338Z" agent="Mozilla/5.0 (Windows NT 10.0; Win64; x64) AppleWebKit/537.36 (KHTML, like Gecko) Chrome/121.0.0.0 Safari/537.36" etag="-12dGV4uO65iPoqpjj_M" version="23.1.4" type="device">
  <diagram name="Seite-1" id="hh91xMZ3J8wBxJiWoi3P">
    <mxGraphModel dx="3015" dy="858" grid="1" gridSize="10" guides="1" tooltips="1" connect="1" arrows="1" fold="1" page="1" pageScale="1" pageWidth="827" pageHeight="1169" math="0" shadow="0">
      <root>
        <mxCell id="0" />
        <mxCell id="1" parent="0" />
        <mxCell id="fA8iviKOBHPn2OhX4hEQ-18" style="edgeStyle=orthogonalEdgeStyle;rounded=0;orthogonalLoop=1;jettySize=auto;html=1;exitX=1;exitY=0.25;exitDx=0;exitDy=0;exitPerimeter=0;entryX=0;entryY=0.25;entryDx=0;entryDy=0;strokeWidth=3;strokeColor=#15FF0D;" parent="1" source="fA8iviKOBHPn2OhX4hEQ-1" target="fA8iviKOBHPn2OhX4hEQ-3" edge="1">
          <mxGeometry relative="1" as="geometry">
            <mxPoint x="570" y="352.6666666666665" as="targetPoint" />
          </mxGeometry>
        </mxCell>
        <mxCell id="fA8iviKOBHPn2OhX4hEQ-1" value="" style="outlineConnect=0;dashed=0;verticalLabelPosition=bottom;verticalAlign=top;align=center;html=1;shape=mxgraph.aws3.management_console;fillColor=#D2D3D3;gradientColor=none;" parent="1" vertex="1">
          <mxGeometry x="-180" y="270" width="370" height="330" as="geometry" />
        </mxCell>
        <mxCell id="fA8iviKOBHPn2OhX4hEQ-22" style="edgeStyle=orthogonalEdgeStyle;rounded=0;orthogonalLoop=1;jettySize=auto;html=1;exitX=0;exitY=0.75;exitDx=0;exitDy=0;strokeWidth=3;strokeColor=#2937FF;" parent="1" source="fA8iviKOBHPn2OhX4hEQ-2" edge="1">
          <mxGeometry relative="1" as="geometry">
            <mxPoint x="710" y="530.7619047619048" as="targetPoint" />
          </mxGeometry>
        </mxCell>
        <mxCell id="fA8iviKOBHPn2OhX4hEQ-2" value="" style="rounded=1;arcSize=10;strokeColor=none;fillColor=#DBDBDB;gradientColor=none;" parent="1" vertex="1">
          <mxGeometry x="986" y="263" width="510" height="357.37" as="geometry" />
        </mxCell>
        <mxCell id="fA8iviKOBHPn2OhX4hEQ-19" style="edgeStyle=orthogonalEdgeStyle;rounded=0;orthogonalLoop=1;jettySize=auto;html=1;exitX=1;exitY=0.25;exitDx=0;exitDy=0;entryX=0;entryY=0.25;entryDx=0;entryDy=0;strokeWidth=3;strokeColor=#15FF0D;" parent="1" source="fA8iviKOBHPn2OhX4hEQ-3" target="fA8iviKOBHPn2OhX4hEQ-2" edge="1">
          <mxGeometry relative="1" as="geometry" />
        </mxCell>
        <mxCell id="fA8iviKOBHPn2OhX4hEQ-21" style="edgeStyle=orthogonalEdgeStyle;rounded=0;orthogonalLoop=1;jettySize=auto;html=1;exitX=0;exitY=0.75;exitDx=0;exitDy=0;strokeWidth=3;strokeColor=#2937FF;" parent="1" source="fA8iviKOBHPn2OhX4hEQ-3" edge="1">
          <mxGeometry relative="1" as="geometry">
            <mxPoint x="200" y="526.952380952381" as="targetPoint" />
          </mxGeometry>
        </mxCell>
        <mxCell id="fA8iviKOBHPn2OhX4hEQ-3" value="&lt;font style=&quot;font-size: 39px;&quot;&gt;REST API&lt;/font&gt;" style="rounded=1;whiteSpace=wrap;html=1;fillColor=#f5f5f5;strokeColor=#666666;fontColor=#333333;" parent="1" vertex="1">
          <mxGeometry x="580" y="264" width="120" height="350" as="geometry" />
        </mxCell>
        <mxCell id="fA8iviKOBHPn2OhX4hEQ-4" value="&lt;font style=&quot;font-size: 40px;&quot;&gt;Client&lt;/font&gt;" style="text;html=1;align=center;verticalAlign=middle;whiteSpace=wrap;rounded=0;strokeWidth=40;" parent="1" vertex="1">
          <mxGeometry x="-30" y="220" width="60" height="30" as="geometry" />
        </mxCell>
        <mxCell id="fA8iviKOBHPn2OhX4hEQ-5" value="&lt;font style=&quot;font-size: 40px;&quot;&gt;Server&lt;/font&gt;" style="text;html=1;align=center;verticalAlign=middle;whiteSpace=wrap;rounded=0;strokeWidth=30;" parent="1" vertex="1">
          <mxGeometry x="1211" y="220" width="60" height="30" as="geometry" />
        </mxCell>
        <mxCell id="fA8iviKOBHPn2OhX4hEQ-12" value="&lt;font style=&quot;font-size: 23px;&quot;&gt;Datenbank Container&lt;/font&gt;" style="rounded=1;whiteSpace=wrap;html=1;fillColor=#dae8fc;strokeColor=#6c8ebf;" parent="1" vertex="1">
          <mxGeometry x="1056.5" y="281.68" width="369" height="100" as="geometry" />
        </mxCell>
        <mxCell id="fA8iviKOBHPn2OhX4hEQ-13" value="" style="image;sketch=0;aspect=fixed;html=1;points=[];align=center;fontSize=12;image=img/lib/mscae/Docker.svg;" parent="1" vertex="1">
          <mxGeometry x="1056.5" y="281.68" width="48.79" height="40" as="geometry" />
        </mxCell>
        <mxCell id="fA8iviKOBHPn2OhX4hEQ-16" value="&lt;font style=&quot;font-size: 23px;&quot;&gt;Backend Logik Container&lt;/font&gt;" style="rounded=1;whiteSpace=wrap;html=1;fillColor=#dae8fc;strokeColor=#6c8ebf;" parent="1" vertex="1">
          <mxGeometry x="1056" y="391.68" width="369" height="100" as="geometry" />
        </mxCell>
        <mxCell id="fA8iviKOBHPn2OhX4hEQ-15" value="" style="image;sketch=0;aspect=fixed;html=1;points=[];align=center;fontSize=12;image=img/lib/mscae/Docker.svg;" parent="1" vertex="1">
          <mxGeometry x="1056.5" y="401.68" width="48.79" height="40" as="geometry" />
        </mxCell>
        <mxCell id="lgcQr28IJEEjdnmlVyoa-1" value="&lt;font style=&quot;font-size: 23px;&quot;&gt;Webserver Frontend&lt;/font&gt;" style="rounded=1;whiteSpace=wrap;html=1;fillColor=#dae8fc;strokeColor=#6c8ebf;" vertex="1" parent="1">
          <mxGeometry x="1056.5" y="501.68" width="369" height="100" as="geometry" />
        </mxCell>
        <mxCell id="lgcQr28IJEEjdnmlVyoa-2" value="" style="image;sketch=0;aspect=fixed;html=1;points=[];align=center;fontSize=12;image=img/lib/mscae/Docker.svg;" vertex="1" parent="1">
          <mxGeometry x="1057" y="511.68" width="48.79" height="40" as="geometry" />
        </mxCell>
      </root>
    </mxGraphModel>
  </diagram>
</mxfile>
